<!DOCTYPE svg PUBLIC "-//W3C//DTD SVG 1.1//EN" "http://www.w3.org/Graphics/SVG/1.1/DTD/svg11.dtd">

<!-- Uploaded to: SVG Repo, www.svgrepo.com, Transformed by: SVG Repo Mixer Tools -->
<svg width="100px" height="100px" viewBox="0 0 24 24" fill="none" xmlns="http://www.w3.org/2000/svg">

<g id="SVGRepo_bgCarrier" stroke-width="0"/>

<g id="SVGRepo_tracerCarrier" stroke-linecap="round" stroke-linejoin="round"/>

<g id="SVGRepo_iconCarrier">

<path d="M13.584 7C12.8124 5.2341 11.0503 4 9 4C6.23858 4 4 6.23858 4 9C4 9.98392 4.2842 10.9015 4.77499 11.675L4 14L6.32498 13.225C6.53947 13.3611 6.76503 13.4813 7 13.584" stroke="currentColor" stroke-linecap="round" stroke-linejoin="round" stroke-width="2"/>

<path d="M15 20C12.2386 20 10 17.7614 10 15C10 12.2386 12.2386 10 15 10C17.7614 10 20 12.2386 20 15C20 15.9839 19.7158 16.9015 19.225 17.675L20 20L17.675 19.225C16.9015 19.7158 15.9839 20 15 20Z" stroke="currentColor" stroke-linecap="round" stroke-linejoin="round" stroke-width="2"/>

</g>

</svg>